<svg id="Layer_1" data-name="Layer 1" xmlns="http://www.w3.org/2000/svg" viewBox="0 0 311.24 311.24"><circle cx="155.62" cy="155.62" r="155.62" style="fill:#5405ce;opacity:0.1"/><path d="M219.94,251.35c-.54.42-1.33.59-3.37,1.3a285.17,285.17,0,0,0-32,13.3c-6.69,3.26-6,2.07-8.93,8.84-7.45,17.35-14.54,35.49-19.75,52.92a152.85,152.85,0,0,0,64.94,41.5c9.44,2.55,19.24,4.65,29.25,6.38a159.06,159.06,0,0,0,16.44,1.05H270a159.78,159.78,0,0,0,16-1.05c10-1.73,19.81-3.83,29.25-6.38a153,153,0,0,0,64.94-41.5c-5.21-17.43-12.3-35.57-19.75-52.92-2.9-6.77-2.24-5.58-9-8.84a283.2,283.2,0,0,0-32-13.3c-1.44-.51-2.24-.74-2.81-1l-.14-.34a58.83,58.83,0,0,0-7.2-9.84c13,.91,23.59-2.32,30.22-10.34,6.41-7.8,6.78-13.58,7.12-23,.65-18.51-.77-38.41-5.87-57-5-18.11-13.41-34.92-26.82-47.85C301.18,91,286.19,81.24,268,81.24c-12.78,0-23.86,2.35-31.69,14.74-7.71-1-11.9,2.44-17,7.37-13.41,12.93-21.86,29.74-26.82,47.85-5.1,18.54-6.52,38.44-5.87,57,.34,9.44.68,15.22,7.12,23,7.08,8.58,18.71,11.67,33,10.12h.18A54.89,54.89,0,0,0,219.94,251.35Z" transform="translate(-112.42 -70.16)" style="fill:#1a1617;fill-rule:evenodd"/><path d="M226.71,241.31a65.68,65.68,0,0,1,9.9-8.47l1.95-9.07c-6.77-7.88-11.87-18.43-14.42-30.48-5.14.12-10.55-5.86-12.65-14.42-1.7-6.81-1.81-12.31.09-15.79,3.23-5.93,9-2.24,11.31,2.15,2.12-18,9.75-33.39,20.44-42.86,7.73,8.73,16.89,16,28.94,17.29,23,2.55,35.23,10.75,40.79,24.35,2.61-3.8,7.62-6.29,10.57-.93,1.87,3.48,1.76,9,.09,15.79-2,8-6.89,13.83-11.74,14.37-2.49,11.65-7.31,21.88-13.75,29.68l-.14.85,2.07,9.55a40,40,0,0,1,9.07,8.25c13.07.93,23.7-2.3,30.36-10.35,6.41-7.79,6.78-13.58,7.12-23,.65-18.51-.77-38.43-5.87-57-5-18.12-13.41-34.92-26.82-47.82-12.84-12.36-27.83-22.14-46-22.14-12.78,0-23.86,2.38-31.69,14.74-7.71-1-11.9,2.47-17,7.4-13.41,12.9-21.86,29.7-26.82,47.82-5.1,18.54-6.52,38.46-5.87,57,.34,9.44.68,15.23,7.12,23C200.83,239.81,212.46,242.9,226.71,241.31Z" transform="translate(-112.42 -70.16)" style="fill:#3d3d3d;fill-rule:evenodd"/><path d="M313.06,164c2.61-3.8,7.62-6.29,10.57-.93,1.87,3.48,1.76,9,.09,15.79-2,8-6.89,13.83-11.74,14.37-2.49,11.65-7.31,21.88-13.75,29.68l-.14.85,2,9.1-.17,0c.17.54.34,1,.48,1.56l.08.31c.68,2.49,1.33,5.13,1.9,7.94,3.94,22.59-4.14,43.73-13.66,65.65-5.27,5.61-13.18,9.95-20.38,9.63-7.32.32-15.39-4.16-20.64-9.95-8.87-20.38-16.44-40.13-14.17-61a103.16,103.16,0,0,1,2.69-12.24l.4-1.87,1.95-9.07c-6.77-7.88-11.87-18.43-14.42-30.48-5.14.12-10.55-5.86-12.65-14.42-1.7-6.81-1.81-12.31.09-15.79,3.23-5.93,9-2.24,11.31,2.15,2.12-18,9.75-33.39,20.44-42.86,7.73,8.73,16.89,16,28.94,17.29C295.31,142.21,307.5,150.41,313.06,164Z" transform="translate(-112.42 -70.16)" style="fill:#f6d5b8;fill-rule:evenodd"/><path d="M223.74,191.37a78.7,78.7,0,0,1-1.36-23.5c-.26-.34-.51-.68-.82-1-1-1-2.73-2.41-4.31-2.3a3.29,3.29,0,0,0-2.44,2c-2,3.62-.68,9.72.4,13.43a21.31,21.31,0,0,0,5,8.9A11,11,0,0,0,223.74,191.37Zm88.33,0a75.42,75.42,0,0,0,1.67-14.26,79.25,79.25,0,0,0-.31-9.24,12.21,12.21,0,0,1,.82-1c1-1,2.72-2.41,4.31-2.3a3.38,3.38,0,0,1,2.46,2c2,3.62.66,9.72-.42,13.43a21.42,21.42,0,0,1-5,8.9A10.78,10.78,0,0,1,312.07,191.37Z" transform="translate(-112.42 -70.16)" style="fill:#e6c6aa;fill-rule:evenodd"/><path d="M300.08,232.87l-2-9.1.14-.85c-8.05,9.75-18.62,15.67-30.19,15.67-11.22,0-21.51-5.58-29.48-14.82l-.56,2.58a44.14,44.14,0,0,0,11.34,10.8,51.52,51.52,0,0,0,19.16,7.31,98.21,98.21,0,0,0,23.5,1c2.15-.14,1.81-.51,2.38,1.62,6.89,27-4.85,71.06-46.43,61.17,5.24,5.64,13.18,10,20.38,9.66,7.2.32,15.11-4,20.38-9.63C299,284.54,308.64,258.8,300.08,232.87Z" transform="translate(-112.42 -70.16)" style="fill:#e6c6aa;fill-rule:evenodd"/><path d="M313.06,164c-5.56-13.6-17.75-21.8-40.79-24.35-12-1.33-21.21-8.56-28.94-17.29-10.69,9.47-18.32,24.89-20.44,42.83,6.15-12.7,11-27.27,20.12-36.22C254.86,157,295.14,139.44,313.06,164Z" transform="translate(-112.42 -70.16)" style="fill:#e6c6aa;fill-rule:evenodd"/><path d="M316.57,251.35a70.5,70.5,0,0,1,3.6,9.52,61.45,61.45,0,0,1,2.1,10.09,15.36,15.36,0,0,1,.23,2,3.15,3.15,0,0,1-.74,1.75,26.71,26.71,0,0,1-3.85,4.6,42,42,0,0,1-5.08,4l6.75,7.2,6.77,7.2L297.3,334.83l-29,37.08-29-37.08-29.06-37.08,6.78-7.2,6.74-7.2a41.14,41.14,0,0,1-5.07-4,27.71,27.71,0,0,1-3.86-4.6A3.12,3.12,0,0,1,214,273a15,15,0,0,1,.22-2,63.6,63.6,0,0,1,2.1-10.09,70.5,70.5,0,0,1,3.6-9.52,55.7,55.7,0,0,1,7.26-10.43,44.19,44.19,0,0,1,9.41-8.08c-7.46,22.56-1.9,43.48,6.69,64.74s20.24,42.95,25,67c4.71-24.09,16.39-45.75,25-67s14.23-42.18,6.78-64.74a67.6,67.6,0,0,1,9.29,8.59A58,58,0,0,1,316.57,251.35Z" transform="translate(-112.42 -70.16)" style="fill:#383032;fill-rule:evenodd"/><path d="M268.27,364.62c3.91-20.07,12.64-38.44,20.44-56.32-5.27,5.61-13.18,9.95-20.38,9.63-7.2.32-15.14-4-20.38-9.66-.09-.09-.17-.2-.26-.29C255.49,326,264.3,344.44,268.27,364.62Z" transform="translate(-112.42 -70.16)" style="fill:#fff;fill-rule:evenodd"/></svg>