<svg id="Layer_1" data-name="Layer 1" xmlns="http://www.w3.org/2000/svg" viewBox="0 0 150.67 163.64"><path d="M139.66,75.58,11.34,1.5C6.52-1.28.5,2.19.5,6.57a595.32,595.32,0,0,1,4.14,98.35C3.92,122.54,2.46,139.19.5,154.75c.79,4.73,3.77,8.26,7,8.39a7,7,0,0,0,3.79-.95L139.61,88.1a7.23,7.23,0,0,0,0-12.52Z" transform="translate(0.01 0)" style="fill:#5405ce;stroke:#5405ce;stroke-miterlimit:10"/><path d="M147.75,77.33,59.05,18.71A5.38,5.38,0,0,0,50.7,23.2a286.29,286.29,0,0,1,6,65.15,286.19,286.19,0,0,1-6,52.1,5.39,5.39,0,0,0,2.83,4.74,5.3,5.3,0,0,0,5.52-.25l88.7-58.62a5.4,5.4,0,0,0,1.52-7.47A5.5,5.5,0,0,0,147.75,77.33Z" transform="translate(0.01 0)" style="fill:#ffc106;stroke:#ffc106;stroke-miterlimit:10"/><path d="M51.39,219.71" transform="translate(0.01 0)" style="fill:#5405ce;stroke:#000;stroke-miterlimit:10"/><path d="M101.69,207.88" transform="translate(0.01 0)" style="fill:#5405ce;stroke:#000;stroke-miterlimit:10"/></svg>