<svg id="Layer_1" data-name="Layer 1" xmlns="http://www.w3.org/2000/svg" viewBox="0 0 311.24 311.24"><circle cx="155.62" cy="155.62" r="155.62" style="fill:#5405ce;opacity:0.1"/><path d="M679,160.07c2.16,3.83,2,9.87.11,17.38-2.23,8.84-7.76,15.19-13.23,15.82-2.78,12.78-8.25,24.06-15.51,32.62,9.58,7.6,17.55,16.13,23.19,26,14.2,4.54,28.12,12.11,42.15,18.46,3.54,1.61,2.86,1.05,4.45,4.7,6.46,15,11.06,30.22,16.7,45.3a153,153,0,0,1-242.22-.23c6.52-13.88,10.37-30.58,17.29-45.21,1.9-4,1.27-3.34,5.21-5.07,13.52-5.9,26.28-12.62,41-17.24,6.49-11.11,14.72-19.87,24.89-25.91-7.62-8.64-13.29-20.18-16.18-33.42-5.79.12-11.91-6.43-14.29-15.84-1.9-7.51-2-13.55.11-17.38a6.18,6.18,0,0,1,3.94-3.29c-8.5-30.33,1.53-51.39,23.08-64,30.07-22.88,68.43-20.89,91.53,11.08C682,118.83,683.77,141.08,679,160.07Z" transform="translate(-460.15 -73.3)" style="fill:#1a1617;fill-rule:evenodd"/><path d="M615.2,77.84c-12.19,1.39-24.43,6.43-35.54,14.91-21.55,12.64-31.58,33.7-23.08,64,3.32-.7,7,2.27,8.82,5.65a5.54,5.54,0,0,1,.65,2.91A62.16,62.16,0,0,0,567.61,177c.28,1.19,2.49,2.44,2.21.63-1.05-6.64-.23-14.43-1.33-20.7l-1-5.58c3.77-15,11.25-27.67,21-36.08,8.76,9.6,19.08,17.57,32.69,19,23.47,2.52,37,10.14,44,22.64-1.1,6.27-.31,14.06-1.33,20.7-.28,1.81,1.93.56,2.21-.63.88-3.68.63-7.65.8-11.65a5.42,5.42,0,0,1,.34-4.28c2.69-4.33,8.61-6.91,11.9-1,4.76-19,3-41.24-7.82-56.24-11.31-15.64-26.28-24.12-42.15-26Z" transform="translate(-460.15 -73.3)" style="fill:#3d3d3d;fill-rule:evenodd"/><path d="M554.46,157.83a8.32,8.32,0,0,0-1.82,2.24c-2.12,3.83-2,9.87-.11,17.38,1.64,6.41,5,11.51,8.81,14.06a9.31,9.31,0,0,0,5.48,1.78c2.89,13.24,8.56,24.78,16.18,33.42a98.6,98.6,0,0,0-2.61,10.15c10.18,15.76,22.37,24.95,35.44,24.95,13.77,0,26.53-10.15,37-27.41a86.72,86.72,0,0,0-2.47-8.51c7.26-8.56,12.73-19.84,15.51-32.62a10.26,10.26,0,0,0,4.45-1.76c3.82-2.55,7.17-7.65,8.78-14.06,1.9-7.51,2-13.55-.11-17.38a7.88,7.88,0,0,0-1.78-2.24c-3.35-2.77-7.89-.37-10.12,3.26a5.42,5.42,0,0,0-.34,4.28c-.17,4,.08,8-.8,11.65-.28,1.19-2.49,2.44-2.21.63,1-6.64.23-14.43,1.33-20.7-7-12.5-20.49-20.12-44-22.64-13.61-1.45-23.93-9.42-32.69-19-9.72,8.41-17.2,21.11-21,36.08l1,5.58c1.1,6.27.28,14.06,1.33,20.7.28,1.81-1.93.56-2.21-.63a62.16,62.16,0,0,1-1.56-11.68,5.54,5.54,0,0,0-.65-2.91c-1.79-3.38-5.5-6.35-8.82-5.65A4.85,4.85,0,0,0,554.46,157.83Z" transform="translate(-460.15 -73.3)" style="fill:#f6d5b8;fill-rule:evenodd"/><path d="M566.36,190.23a81.61,81.61,0,0,1-1.87-15.7,88.27,88.27,0,0,1,.34-10.15,10.72,10.72,0,0,0-.91-1.13c-1.1-1.16-3.09-2.67-4.87-2.5a3.71,3.71,0,0,0-2.78,2.16c-2.24,4-.74,10.71.48,14.79a23,23,0,0,0,5.62,9.78A12.49,12.49,0,0,0,566.36,190.23Zm99.64,0a85.49,85.49,0,0,0,1.53-25.85,10.72,10.72,0,0,1,.91-1.13c1.1-1.16,3.09-2.67,4.87-2.5a3.69,3.69,0,0,1,2.78,2.16c2.24,4,.74,10.71-.48,14.79a22.8,22.8,0,0,1-5.61,9.78A12.65,12.65,0,0,1,666,190.23Z" transform="translate(-460.15 -73.3)" style="fill:#e6c6aa;fill-rule:evenodd"/><path d="M583,226.86c-19.22,53.94,21.83,104.54,31.18,152.93-1.53,0-3.06-.06-4.59-.15l-62-77.75L565.31,288c-3.85-5.39-11-8-14.2-13.52,3-7,2.75-15,7-21.74C564.6,241.65,572.83,232.89,583,226.86Zm70.67,1.75a88,88,0,0,1,19.9,23.3c.74.23,1.44.49,2.15.71l.09.15c4.25,6.71,4,14.71,7,21.74-3.18,5.55-10.32,8.13-14.2,13.52l17.69,13.86-61.86,77.67c-1.55.08-3.11.14-4.7.17,9.38-48.36,50.4-99,31.18-152.87C651.86,227.42,652.76,228,653.67,228.61Z" transform="translate(-460.15 -73.3)" style="fill:#383032;fill-rule:evenodd"/><path d="M650.38,225.89c.14-.17-13.44,15.31-33.9,15.31-14.26,0-33.39-14.4-33.39-14.37l-.6,2.52a49.7,49.7,0,0,0,12.19,10.29,63.25,63.25,0,0,0,22.31,7.8,122.23,122.23,0,0,0,25.17,1.19,83.05,83.05,0,0,0,10.69-14.23A81.15,81.15,0,0,0,650.38,225.89Z" transform="translate(-460.15 -73.3)" style="fill:#e6c6aa;fill-rule:evenodd"/><path d="M615.83,261.81c-13.07,0-25.26-9.19-35.44-24.95A98.6,98.6,0,0,1,583,226.71c-12.44,34.93.37,68.43,13.49,100.86,7.18,17.72,14.43,35.09,17.72,52.22h1.62c1.3,0,2.6,0,3.88-.06,3.06-15.79,9.5-31.86,16.1-48.16,13.64-33.68,28.06-68.51,15.11-104.86l2,1.25c-.85-.68-1.7-1.39-2.55-2.07a86.72,86.72,0,0,1,2.47,8.51,83.05,83.05,0,0,1-10.69,14.23C634.11,257.1,625.21,261.81,615.83,261.81Z" transform="translate(-460.15 -73.3)" style="fill:#fff;fill-rule:evenodd"/><path d="M616,264.73l-16.42,26.16,5.53,8-8.62,28.8c7.15,17.68,14.4,35,17.69,52.13h1.65c1.3,0,2.6,0,3.91-.06,3.06-15.76,9.47-31.78,16.07-48.08.88-2.38-9.35-32.42-9.35-32.42L632,289.5Z" transform="translate(-460.15 -73.3)" style="fill:#f23034;fill-rule:evenodd"/><path d="M616,265.29,590.43,300l-10.89-25.23c3.06,18,10,35.72,17.07,53.1l8.5-28.44-5.53-8Zm25.74,35.21L616,265.29l16,24.78-5.52,9.72s9,26.39,9.38,31.67c7.74-19,15.67-38.44,18.79-58.29Z" transform="translate(-460.15 -73.3)" style="fill:#e6e6e6;fill-rule:evenodd"/><path d="M621.13,134.31c-13.61-1.45-23.93-9.42-32.69-19-9.72,8.41-17.2,21.11-21,36.08,6.94-10.66,11.45-24.32,20.83-31.95,12.67,26,56.89,16.44,76.79,37.53C658.09,144.45,644.6,136.83,621.13,134.31Z" transform="translate(-460.15 -73.3)" style="fill:#e6c6aa;fill-rule:evenodd"/></svg>