<svg id="Layer_1" data-name="Layer 1" xmlns="http://www.w3.org/2000/svg" viewBox="0 0 212.99 411.58"><path d="M208.12,65.51c-13.66-36-54.81-64.54-99.75-65C59.88-.07,17.66,32.11,4.48,69.13c-13.8,38.76,10.4,65.76,41.21,146.08,47.48,123.52,42.7,195.86,60.69,195.87s13.44-72,60.52-195.87C198.09,133.16,222.88,104.58,208.12,65.51ZM99.88,164.59,60.23,187.48a7,7,0,0,1-3.79,1c-3.23-.13-6.21-3.66-7-8.39,2-15.56,3.42-32.21,4.14-49.83a595.85,595.85,0,0,0-4.14-98.39c0-4.38,6-7.85,10.84-5.07l39.6,22.86a286.52,286.52,0,0,1,5.77,64A285.56,285.56,0,0,1,99.88,164.59Zm99.76-53-88.7,58.62a5.3,5.3,0,0,1-5.52.25,5.37,5.37,0,0,1-2.83-4.74,286.19,286.19,0,0,0,6-52.1,286.86,286.86,0,0,0-6-65.15,5.49,5.49,0,0,1,.89-3A5.39,5.39,0,0,1,110.94,44l88.7,58.62a5.5,5.5,0,0,1,1.52,1.52,5.41,5.41,0,0,1-1.53,7.48Z" transform="translate(-0.01 0)" style="fill:#5405ce;stroke:#5405ce;stroke-miterlimit:10"/></svg>